<svg version="1.1" id="Layer_2" xmlns="http://www.w3.org/2000/svg" xmlns:xlink="http://www.w3.org/1999/xlink" x="0px" y="0px"
	 width="83.834px" height="93.001px" viewBox="0 0 83.834 93.001" style="enable-background:new 0 0 83.834 93.001;"
	 xml:space="preserve">
<path style="fill:none;stroke:#000000;stroke-width:3.7202;stroke-linecap:round;stroke-linejoin:round;" d="M32.485,66.157
	c3.614,1.642,9.126,5.091,9.326,11.004c0.201,5.913-3.249,13.961-12.611,13.796c-9.362-0.164-11.169-6.57-11.169-6.57
	S7.356,81.924,8.669,69.77c0,0-10.512-6.569-4.763-16.589"/>
<path style="fill:none;stroke:#000000;stroke-width:3.7202;stroke-linecap:round;stroke-linejoin:round;" d="M13.104,56.137
	c-2.957,0-17.739-4.927-7.392-19.874c0,0-2.628-13.797,9.691-15.275s11.99,11.169,11.99,11.169"/>
<path style="fill:none;stroke:#000000;stroke-width:3.7202;stroke-linecap:round;stroke-linejoin:round;" d="M15.404,20.988
	c-0.164-1.971-2.299-7.063,2.628-10.84c4.927-3.778,9.362-0.821,11.662,2.792"/>
<path style="fill:none;stroke:#000000;stroke-width:3.7202;stroke-linecap:round;stroke-linejoin:round;" d="M21.317,8.39
	c1.971-1.691,14.125-12.367,20.495-1.526c0.365,11.168-0.36,68.017-0.36,68.017"/>
<path style="fill:none;stroke:#000000;stroke-width:3.7202;stroke-linecap:round;stroke-linejoin:round;" d="M35.442,27.394
	c1.807,0.657,6.444,1.48,6.423,4.764"/>
<path style="fill:none;stroke:#000000;stroke-width:3.7202;stroke-linecap:round;stroke-linejoin:round;" d="M16.225,32.158
	c0.821,3.777,4.435,17.574,19.217,8.048"/>
<path style="fill:none;stroke:#000000;stroke-width:3.7202;stroke-linecap:round;stroke-linejoin:round;" d="M19.51,51.375
	c1.971-0.493,8.049-1.407,7.885-7.931"/>
<path style="fill:none;stroke:#000000;stroke-width:3.7202;stroke-linecap:round;stroke-linejoin:round;" d="M29.693,57.616
	c-2.299,0.821-10.512,2.299-10.183,12.811"/>
<path style="fill:none;stroke:#000000;stroke-width:3.7202;stroke-linecap:round;stroke-linejoin:round;" d="M16.225,70.427
	c0,0,9.199-1.149,11.17,10.841"/>
<path style="fill:none;stroke:#000000;stroke-width:3.7202;stroke-linecap:round;stroke-linejoin:round;" d="M51.197,66.157
	c-3.614,1.642-9.125,5.091-9.326,11.004c-0.2,5.913,3.249,13.961,12.611,13.796c9.362-0.164,11.168-6.57,11.168-6.57
	s10.676-2.463,9.362-14.618c0,0,10.512-6.569,4.764-16.589"/>
<path style="fill:none;stroke:#000000;stroke-width:3.7202;stroke-linecap:round;stroke-linejoin:round;" d="M70.578,56.137
	c2.957,0,17.739-4.927,7.392-19.874c0,0,2.628-13.797-9.691-15.275c-12.318-1.478-11.99,11.169-11.99,11.169"/>
<path style="fill:none;stroke:#000000;stroke-width:3.7202;stroke-linecap:round;stroke-linejoin:round;" d="M68.279,20.988
	c0.165-1.971,2.299-7.063-2.628-10.84c-4.927-3.778-9.362-0.821-11.662,2.792"/>
<path style="fill:none;stroke:#000000;stroke-width:3.7202;stroke-linecap:round;stroke-linejoin:round;" d="M62.366,8.39
	C60.395,6.699,48.241-3.977,41.871,6.863c-0.365,11.168,0.36,68.017,0.36,68.017"/>
<path style="fill:none;stroke:#000000;stroke-width:3.7202;stroke-linecap:round;stroke-linejoin:round;" d="M48.241,27.394
	c-1.807,0.657-6.444,1.48-6.423,4.764"/>
<path style="fill:none;stroke:#000000;stroke-width:3.7202;stroke-linecap:round;stroke-linejoin:round;" d="M67.458,32.158
	c-0.821,3.777-4.435,17.574-19.217,8.048"/>
<path style="fill:none;stroke:#000000;stroke-width:3.7202;stroke-linecap:round;stroke-linejoin:round;" d="M64.172,51.375
	c-1.971-0.493-8.049-1.407-7.884-7.931"/>
<path style="fill:none;stroke:#000000;stroke-width:3.7202;stroke-linecap:round;stroke-linejoin:round;" d="M53.989,57.616
	c2.299,0.821,10.512,2.299,10.183,12.811"/>
<path style="fill:none;stroke:#000000;stroke-width:3.7202;stroke-linecap:round;stroke-linejoin:round;" d="M67.458,70.427
	c0,0-9.199-1.149-11.169,10.841"/>
</svg>