<?xml version="1.0" encoding="utf-8"?>
<!-- Generator: Adobe Illustrator 14.0.0, SVG Export Plug-In . SVG Version: 6.00 Build 43363)  -->
<!DOCTYPE svg PUBLIC "-//W3C//DTD SVG 1.1//EN" "http://www.w3.org/Graphics/SVG/1.1/DTD/svg11.dtd">
<svg version="1.1" id="Layer_2" xmlns="http://www.w3.org/2000/svg" xmlns:xlink="http://www.w3.org/1999/xlink" x="0px" y="0px"
	 width="229px" height="162px" viewBox="0 0 229 162" style="enable-background:new 0 0 229 162;" xml:space="preserve">
<path style="opacity:0.7;fill:none;stroke:#FFCC00;stroke-width:2;" d="M115.535,19.322c4.252-6.285,15.383-3.604,13.817-13.817
	c-5.31-1.472-12.223-1.036-17.753-1.03c-5.662,0.006-13.189-1.302-18.574,0.363c-5.271,1.629-5.704,3.724-11.47,2.965
	c-3.966-0.521-10.857-1.721-14.606-0.009c-3.113,1.42-4.881,4.541-8.083,6.247c-2.384,1.27-4.583,1.958-7.125,3.104
	c-8.686,3.916-19.244,11.405-25.777,17.529c-4.997,4.683-8.68,8.979-11.128,15.206c-2.701,6.867-7.403,12.093-8.524,19.688
	c-0.842,5.705,1.799,12.149,0.515,17.451c-1.347,5.557-5.816,8.927-2.881,15.523c3.306,7.427,13.752,13.114,21.15,15.023
	c7.048,1.818,13.893,3.361,21.4,3.296c9.636-0.085,10.116-10.093,17.458-15.219c3.792-2.647,7.924-2.91,12.236-4.525
	c5.111-1.916,13.661-4.993,17.304-8.982c3.203-3.507-0.762-5.436-0.948-10.427c-0.197-5.28-3.563-6.125-4.728-10.297
	c-1.189-4.258,1.353-3.919,3.211-6.094c2.409-2.82,3.051-4.688,2.475-8.993c-0.46-3.436-2.781-7.528-1.924-11.137
	c1.434-6.032,8.736-9.31,12.519-14.162c2.621-3.362,10.381-13.88,15.27-13.139"/>
<path style="opacity:0.7;fill:none;stroke:#6699FF;stroke-width:2;" d="M88.234,80.149c3.235,3.058,0.093,8.969,5.257,11.026
	c4.697,1.872,9.137-1.987,13.014-3.243c7.759-2.515,15.882-2.129,22.955-6.359c2.052-1.227,3.752-2.952,6.19-3.605
	c3.719-0.995,6.071,1.292,9.613,1.606c3.632,0.321,3.682-1.002,6.669-2.657c3.066-1.697,5.605-1.259,8.741-2.037
	c4.097-1.018,5.938-3.327,9.982-5.671c1.669-0.967,4.976-2.958,6.751-2.901c7.403,0.238,4.477,9.107,7.424,12.065
	c4.646,4.664,15.281-2.126,20.269-1.587c5.709,0.616,8.979,6.55,15.252,5.705c0.597-6.289-2.999-10.833-6.165-15.754
	c-3.271-5.086-0.859-10.889-4.274-15.433c-1.742-2.317-4.422-2.589-6.25-4.326c-1.557-1.48-1.666-3.25-2.841-4.438
	c-3.224-3.259-7.911-4.141-11.529-6.577c-3.391-2.283-1.533-4.512-3.448-6.988c-1.688-2.185-5.735-1.635-7.123-3.046
	c-1.84-1.87-1.504-3.771-3.906-5.759c-2.691-2.228-6.356-3.724-9.516-5.158c-4.421-2.006-9.984-1.74-13.45-3.942
	c-5.031-3.195-8.524-5.232-15.149-6.022c-11.051-1.317-13.458,3.146-20.183,10.584c-2.863,3.167-6.923,5.021-10.377,7.487
	c-5.072,3.622-13.062,7.194-14.658,13.445c-0.793,3.105-0.379,6.765-0.375,10.033c0.005,5.54-1.799,8.525-3.83,13.436
	c-2.328,5.628-4.448,18.978,2.393,22.031"/>
<path style="opacity:0.7;fill:none;stroke:#66CC33;stroke-width:2;" d="M103.561,85.417c-9.472,6.69-20.292,12.22-28.665,14.955
	c-6.88,2.246-9.607,1.783-14.92,6.814c-3.08,2.916-6.951,9.72-8.068,14.176c-0.724,2.886,1.863,10.714-2.793,11.049
	c-0.891,6.914-1.472,12.452,5.943,13.832c5.653,1.053,9.154,3.026,14.017,6.679c5.754,4.322,9.812,7.75,16.249,2.673
	c3.491-2.754,5.353-6.067,9.561-6.958c6.581-1.392,13.11-1.952,19.714-3.832c1.833-0.521,4.704-0.759,6.287-1.392
	c3.313-1.324,5.489-5.354,9.019-6.306c7.071-1.908,16.67,3.835,23.827,1.034c3.449-1.35,4.939-4.989,9.256-5.918
	c2.708-0.584,5.465-0.303,8.179-0.002c7.499,0.83,12.68,4.077,19.095-2.398c4.617-4.66,1.231-9.265,3.325-14.223
	c1.693-4.012,7.134-3.645,8.638-7.713c1.904-5.149-3.72-9.188-3.352-14.597c0.287-4.197,2.874-9.56,1.748-13.55
	c-3.825-0.064-7.643-0.215-10.392-3.08c-3.799-3.957-3.625-7.899-9.549-10.26c-6.908-2.754-8.062-0.994-13.035,3.208
	c-4.594,3.881-7.333,4.469-13.063,5.632c-4.589,0.931-10.364,3.31-15.075,2.533c-4.343-0.716-6.864-2.695-11.976-1.347
	c-4.756,1.254-9.233,4.223-13.913,6.222c-3.627,1.55-8.026,2.212-11.016,3.725"/>
<path style="opacity:0.7;fill:none;stroke:#FF3366;stroke-width:2;" d="M224.257,114.155c4.085-4.994-3.978-25.401-3.353-31.611
	c-7.123-2.204-8.395-5.505-15.771-7.16c-14.826-3.327-7.852,12.714-6.729,20.091c0.75,4.922,0.056,10.864-2.381,14.929
	c-2.003,3.342-6.204,4.881-7.711,8.505c-0.89,2.142-0.542,5.311-1.389,7.694c-0.601,1.692-3.396,4.45-1.868,6.613
	c1.912,2.708,9.408,0.705,11.915,0.457c5.728-0.565,7.038,0.581,11.614,3.577c5.662,3.707,10.244,2.661,13.839-2.849
	c3.972-6.086,2.313-14.869,2.313-22.164"/>
<path style="opacity:0.9;fill:#FF0000;" d="M90.15,82.928c-0.772-8.643-19.261-3.581-14.727,7.078
	c1.498,3.519,6.671,6.836,9.327,9.338c2.813,2.648,3.904,6.065,6.849,8.322c0.905-4.007,5.891-9.028,8.013-12.657
	c1.839-3.146,6.646-7.789,7.325-11.073c0.829-4.005-4.698-8.72-8.655-8.203c-3.013,0.394-7.306,5.242-9.089,7.675"/>
</svg>
